<svg id="visual" viewBox="0 0 900 600" width="900" height="600" xmlns="http://www.w3.org/2000/svg" xmlns:xlink="http://www.w3.org/1999/xlink" version="1.1"><path d="M0 229L82 229L82 121L164 121L164 217L245 217L245 163L327 163L327 109L409 109L409 199L491 199L491 157L573 157L573 277L655 277L655 115L736 115L736 205L818 205L818 127L900 127L900 157L900 0L900 0L818 0L818 0L736 0L736 0L655 0L655 0L573 0L573 0L491 0L491 0L409 0L409 0L327 0L327 0L245 0L245 0L164 0L164 0L82 0L82 0L0 0Z" fill="#ffffff"></path><path d="M0 289L82 289L82 247L164 247L164 313L245 313L245 313L327 313L327 247L409 247L409 313L491 313L491 211L573 211L573 373L655 373L655 175L736 175L736 301L818 301L818 265L900 265L900 265L900 155L900 125L818 125L818 203L736 203L736 113L655 113L655 275L573 275L573 155L491 155L491 197L409 197L409 107L327 107L327 161L245 161L245 215L164 215L164 119L82 119L82 227L0 227Z" fill="#f0cbd4"></path><path d="M0 361L82 361L82 283L164 283L164 415L245 415L245 409L327 409L327 319L409 319L409 379L491 379L491 247L573 247L573 421L655 421L655 229L736 229L736 343L818 343L818 367L900 367L900 301L900 263L900 263L818 263L818 299L736 299L736 173L655 173L655 371L573 371L573 209L491 209L491 311L409 311L409 245L327 245L327 311L245 311L245 311L164 311L164 245L82 245L82 287L0 287Z" fill="#de97ab"></path><path d="M0 439L82 439L82 397L164 397L164 499L245 499L245 481L327 481L327 403L409 403L409 445L491 445L491 349L573 349L573 493L655 493L655 295L736 295L736 421L818 421L818 403L900 403L900 433L900 299L900 365L818 365L818 341L736 341L736 227L655 227L655 419L573 419L573 245L491 245L491 377L409 377L409 317L327 317L327 407L245 407L245 413L164 413L164 281L82 281L82 359L0 359Z" fill="#c96384"></path><path d="M0 601L82 601L82 601L164 601L164 601L245 601L245 601L327 601L327 601L409 601L409 601L491 601L491 601L573 601L573 601L655 601L655 601L736 601L736 601L818 601L818 601L900 601L900 601L900 431L900 401L818 401L818 419L736 419L736 293L655 293L655 491L573 491L573 347L491 347L491 443L409 443L409 401L327 401L327 479L245 479L245 497L164 497L164 395L82 395L82 437L0 437Z" fill="#b0235f"></path></svg>